<?xml version="1.0" encoding="UTF-8"?>
<svg id="Layer_2" xmlns="http://www.w3.org/2000/svg" version="1.1" viewBox="0 0 466 180">
  <!-- Generator: Adobe Illustrator 29.5.0, SVG Export Plug-In . SVG Version: 2.1.0 Build 137)  -->
  <defs>
    <style>
      .st0, .st1 {
        fill: #d01f3f;
      }

      .st1 {
        fill-rule: evenodd;
      }

      .st2 {
        fill: #1b2753;
      }

      .st3 {
        fill: #fff;
      }

      .st4 {
        fill: #141d3e;
      }

      .st5 {
        fill: #ffcc05;
      }
    </style>
  </defs>
  <g id="Layer_1-2">
    <g>
      <g>
        <g>
          <path class="st3" d="M213.8,133c1.3.4,2.4,1,3.1,2,.8,1,1.2,2.2,1.2,3.6,0,2.2-.8,3.9-2.4,5.2-1.6,1.3-3.8,1.9-6.8,1.9h-11.5v-24.3h12c1.6,0,3,.3,4.2.8,1.2.5,2.1,1.3,2.8,2.2.6.9,1,2,1,3.2s-.3,2.3-.9,3.1c-.6.9-1.5,1.5-2.6,1.9v.2h0ZM203.3,126.2v5.1h5.3c.9,0,1.7-.2,2.2-.7s.8-1.1.8-1.9-.3-1.5-.8-1.9c-.5-.4-1.3-.6-2.2-.6h-5.3ZM208.6,141.1c1.2,0,2.1-.2,2.7-.7.6-.5,1-1.2,1-2.2,0-1.9-1.2-2.8-3.6-2.8h-5.3v5.7h5.3,0Z"/>
          <path class="st3" d="M231.3,145.8h-5.9v-8.3h-1.9l-6.8-16h6.1l4.4,11h2.3l4.4-10.9h6.1l-6.8,16h-1.9v8.3h0Z"/>
          <path class="st3" d="M248.7,144.2c-1.9-1.4-2.9-3.5-3.1-6.2h6c0,1,.5,1.9,1.3,2.4.8.6,2,.9,3.6.9s2.3-.2,3-.6c.7-.4,1-1,1-1.7s-.2-1-.7-1.4c-.4-.4-1-.7-1.6-.9s-1.6-.5-2.8-.8c-1.8-.5-3.4-.9-4.6-1.4-1.2-.5-2.2-1.2-3.1-2.2s-1.3-2.3-1.3-4,.4-2.7,1.2-3.8,1.9-2,3.4-2.6,3.2-.9,5.1-.9c3,0,5.4.7,7.2,2s2.7,3.2,2.9,5.7h-6c0-.9-.4-1.5-1-1.9-.6-.4-1.6-.7-2.9-.7s-2.1.2-2.8.6-1,.9-1,1.6.2,1,.7,1.4c.4.4,1,.7,1.6.9.7.2,1.6.5,2.8.8,1.9.5,3.4.9,4.6,1.4,1.2.5,2.2,1.2,3.1,2.2.9,1,1.3,2.3,1.3,4s-.4,2.8-1.2,3.9c-.8,1.1-2,2-3.5,2.6-1.5.6-3.2.9-5.2.9-3.4,0-6.1-.7-8-2.2h0Z"/>
          <path class="st3" d="M273.6,144.7c-2-1.1-3.6-2.6-4.7-4.6-1.1-1.9-1.7-4.1-1.7-6.5s.6-4.5,1.7-6.5c1.1-1.9,2.7-3.4,4.7-4.6s4.2-1.7,6.7-1.7,4.7.6,6.7,1.7,3.6,2.6,4.7,4.6c1.1,1.9,1.7,4.1,1.7,6.5s-.6,4.5-1.7,6.5c-1.1,1.9-2.7,3.4-4.7,4.6-2,1.1-4.2,1.7-6.7,1.7s-4.7-.6-6.7-1.7ZM284,139.9c1.1-.6,1.9-1.4,2.5-2.5s.9-2.3.9-3.7-.3-2.6-.9-3.7c-.6-1.1-1.4-1.9-2.5-2.5s-2.3-.9-3.7-.9-2.6.3-3.7.9c-1.1.6-1.9,1.4-2.5,2.5s-.9,2.3-.9,3.7.3,2.6.9,3.7,1.4,1.9,2.5,2.5,2.3.9,3.7.9,2.6-.3,3.7-.9Z"/>
          <path class="st3" d="M300.3,144.7c-2-1.1-3.6-2.6-4.7-4.6-1.1-1.9-1.7-4.1-1.7-6.4s.6-4.5,1.7-6.4c1.1-1.9,2.7-3.5,4.7-4.6s4.2-1.7,6.6-1.7,4.1.4,5.8,1.2c1.7.8,3.1,1.9,4.3,3.3s1.9,3,2.3,4.7h-6.3c-1.2-2.4-3.2-3.7-6-3.7s-2.5.3-3.6.9c-1,.6-1.9,1.4-2.5,2.5-.6,1.1-.9,2.3-.9,3.7s.3,2.6.9,3.7,1.4,1.9,2.5,2.5c1,.6,2.2.9,3.6.9,3,0,5.1-1.4,6.2-4.2h6.3c-.4,1.9-1.2,3.6-2.4,5.1s-2.6,2.6-4.3,3.4-3.7,1.2-5.8,1.2-4.6-.6-6.6-1.7h0Z"/>
          <path class="st3" d="M326.9,145.8h-5.9v-24.3h5.9v24.3Z"/>
          <path class="st3" d="M335.2,144.7c-2-1.1-3.6-2.6-4.7-4.6-1.1-1.9-1.7-4.1-1.7-6.5s.6-4.5,1.7-6.5c1.1-1.9,2.7-3.4,4.7-4.6s4.2-1.7,6.7-1.7,4.7.6,6.7,1.7,3.6,2.6,4.7,4.6c1.1,1.9,1.7,4.1,1.7,6.5s-.6,4.5-1.7,6.5c-1.1,1.9-2.7,3.4-4.7,4.6-2,1.1-4.2,1.7-6.7,1.7s-4.7-.6-6.7-1.7ZM345.6,139.9c1.1-.6,1.9-1.4,2.5-2.5s.9-2.3.9-3.7-.3-2.6-.9-3.7c-.6-1.1-1.4-1.9-2.5-2.5s-2.3-.9-3.7-.9-2.6.3-3.7.9c-1.1.6-1.9,1.4-2.5,2.5s-.9,2.3-.9,3.7.3,2.6.9,3.7,1.4,1.9,2.5,2.5,2.3.9,3.7.9,2.6-.3,3.7-.9Z"/>
          <path class="st3" d="M358.3,144.2c-1.9-1.4-2.9-3.5-3.1-6.2h6c0,1,.5,1.9,1.3,2.4.8.6,2,.9,3.6.9s2.3-.2,3-.6c.7-.4,1-1,1-1.7s-.2-1-.7-1.4c-.4-.4-1-.7-1.6-.9s-1.6-.5-2.8-.8c-1.8-.5-3.4-.9-4.5-1.4-1.2-.5-2.2-1.2-3.1-2.2s-1.3-2.3-1.3-4,.4-2.7,1.2-3.8,1.9-2,3.4-2.6c1.5-.6,3.2-.9,5.1-.9,3,0,5.4.7,7.2,2s2.7,3.2,2.9,5.7h-6c0-.9-.4-1.5-1-1.9-.6-.4-1.6-.7-2.9-.7s-2.1.2-2.8.6-1,.9-1,1.6.2,1,.7,1.4c.4.4,1,.7,1.6.9s1.6.5,2.8.8c1.9.5,3.4.9,4.6,1.4,1.2.5,2.2,1.2,3.1,2.2.9,1,1.3,2.3,1.3,4s-.4,2.8-1.2,3.9c-.8,1.1-2,2-3.5,2.6-1.5.6-3.2.9-5.2.9-3.5,0-6.1-.7-8-2.2h0Z"/>
          <path class="st3" d="M378,145.5c-.6-.6-.9-1.3-.9-2.1s.3-1.6.9-2.2,1.3-.9,2.1-.9,1.6.3,2.1.9.9,1.3.9,2.2-.3,1.6-.9,2.1c-.6.6-1.3.9-2.1.9s-1.6-.3-2.1-.9Z"/>
          <path class="st3" d="M389.2,144.7c-2-1.1-3.6-2.6-4.7-4.6-1.1-1.9-1.7-4.1-1.7-6.4s.6-4.5,1.7-6.4c1.1-1.9,2.7-3.5,4.7-4.6s4.2-1.7,6.6-1.7,4.1.4,5.8,1.2c1.7.8,3.1,1.9,4.3,3.3s1.9,3,2.3,4.7h-6.3c-1.2-2.4-3.2-3.7-6-3.7s-2.5.3-3.6.9c-1,.6-1.9,1.4-2.5,2.5-.6,1.1-.9,2.3-.9,3.7s.3,2.6.9,3.7,1.4,1.9,2.5,2.5c1,.6,2.2.9,3.6.9,3,0,5.1-1.4,6.2-4.2h6.3c-.4,1.9-1.2,3.6-2.4,5.1s-2.6,2.6-4.3,3.4-3.7,1.2-5.8,1.2-4.6-.6-6.6-1.7h0Z"/>
          <path class="st3" d="M415,144.7c-2-1.1-3.6-2.6-4.7-4.6-1.1-1.9-1.7-4.1-1.7-6.5s.6-4.5,1.7-6.5c1.1-1.9,2.7-3.4,4.7-4.6s4.2-1.7,6.7-1.7,4.7.6,6.7,1.7,3.6,2.6,4.7,4.6c1.1,1.9,1.7,4.1,1.7,6.5s-.6,4.5-1.7,6.5c-1.1,1.9-2.7,3.4-4.7,4.6-2,1.1-4.2,1.7-6.7,1.7s-4.7-.6-6.7-1.7ZM425.4,139.9c1.1-.6,1.9-1.4,2.5-2.5s.9-2.3.9-3.7-.3-2.6-.9-3.7c-.6-1.1-1.4-1.9-2.5-2.5s-2.3-.9-3.7-.9-2.6.3-3.7.9c-1.1.6-1.9,1.4-2.5,2.5s-.9,2.3-.9,3.7.3,2.6.9,3.7,1.4,1.9,2.5,2.5,2.3.9,3.7.9,2.6-.3,3.7-.9Z"/>
          <path class="st3" d="M442.4,145.8h-5.8v-24.3h9.8l4.6,13.7h.9l4.7-13.7h9.5v24.3h-5.8v-18.2h-.9l-4.3,12.9h-7.4l-4.3-12.9h-.9v18.2h0Z"/>
        </g>
        <g>
          <path class="st3" d="M234.9,67.7c-2.7-1.1-6.1-2.2-10.3-3.2-2.6-.7-4.7-1.3-6.2-1.8-1.5-.5-2.7-1.2-3.7-2s-1.5-1.8-1.5-3,.7-2.8,2.2-3.6,3.5-1.3,6.2-1.3,5.1.5,6.6,1.5c1.5,1,2.2,2.5,2.3,4.4h13.5c-.5-5.5-2.7-9.8-6.6-12.7-2.8-2.1-6.4-3.5-10.7-4.1v-8.2h-9.4v8c-2.8.3-5.3.9-7.6,1.8-3.3,1.3-5.8,3.3-7.6,5.8-1.8,2.5-2.7,5.4-2.7,8.6s1,6.7,2.9,8.9c1.9,2.3,4.3,3.9,7,5,2.7,1.1,6.1,2.2,10.2,3.2,2.6.7,4.7,1.3,6.2,1.8,1.5.5,2.7,1.2,3.7,2,1,.8,1.5,1.8,1.5,3s-.8,3-2.3,3.9c-1.5.9-3.8,1.4-6.8,1.4s-6.3-.7-8.1-1.9c-1.8-1.3-2.8-3.1-2.9-5.5h-13.5c.4,6,2.6,10.7,6.9,13.9,3.3,2.5,7.6,4,13,4.6v8.1h9.4v-8.1c2.6-.3,5.1-.9,7.3-1.8,3.4-1.4,6-3.4,7.9-5.9,1.9-2.5,2.8-5.4,2.8-8.8s-1-6.7-2.9-9-4.3-3.9-6.9-5h0Z"/>
          <path class="st3" d="M290.7,45.2c-4.5-2.5-9.5-3.8-15.1-3.8s-10.5,1.2-15.1,3.8-8.1,5.9-10.7,10.2-3.9,9.2-3.9,14.5,1.3,10.2,3.9,14.5c2.6,4.3,6.1,7.7,10.7,10.2,4.5,2.5,9.5,3.8,15.1,3.8s10.5-1.2,15.1-3.8,8.1-5.9,10.7-10.2c2.6-4.3,3.9-9.2,3.9-14.5s-1.3-10.2-3.9-14.5c-2.6-4.3-6.1-7.7-10.7-10.2ZM289.5,78.3c-1.3,2.4-3.2,4.3-5.6,5.7-2.4,1.3-5.2,2-8.3,2s-5.9-.7-8.3-2c-2.4-1.3-4.3-3.2-5.6-5.7s-2-5.2-2-8.3.7-5.9,2-8.3,3.2-4.3,5.6-5.7c2.4-1.3,5.2-2,8.3-2s5.9.7,8.3,2c2.4,1.3,4.3,3.2,5.6,5.7,1.3,2.4,2,5.2,2,8.3s-.7,5.9-2,8.3Z"/>
          <path class="st3" d="M369.5,67.6h-26.7v9.8h7c-.4,1.1-1,2.1-1.6,3-1.3,1.8-3,3.2-5.1,4.1-2.1.9-4.5,1.4-7.3,1.4s-5.8-.7-8.2-2.1c-2.4-1.4-4.2-3.3-5.6-5.7s-2-5.2-2-8.3.7-5.9,2-8.3c1.3-2.4,3.2-4.2,5.6-5.6,2.4-1.3,5.1-2,8.2-2s4,.3,5.7.8c1.7.5,3.2,1.3,4.5,2.4,1.3,1,2.3,2.3,3.1,3.8h14.1c-1.1-4-2.9-7.4-5.5-10.3s-5.8-5.2-9.6-6.8-7.9-2.4-12.4-2.4-10.5,1.2-15,3.8-8,5.9-10.6,10.3c-2.6,4.3-3.9,9.2-3.9,14.5s1.3,10.1,3.9,14.5c2.6,4.3,6.1,7.8,10.6,10.3,4.5,2.5,9.5,3.8,15,3.8s9.6-1,13.6-3c4-2,7.4-4.8,10-8.6,2-2.8,3.5-6,4.4-9.5h5.6v-9.8h0Z"/>
        </g>
      </g>
      <g>
        <circle class="st2" cx="90" cy="90" r="90"/>
        <g>
          <path class="st4" d="M149,26.6c-.8-.8-2.6-.4-3.8.9l-52.9,52.9c-1.2,1.3-3.3,1.3-4.6,0L34.8,27.5c-1.3-1.2-3-1.7-3.8-.9s-.5,2.5.8,3.7l56,56c1.2,1.3,3.3,1.3,4.6,0l56-56c1.2-1.3,1.6-2.9.8-3.7h0Z"/>
          <path class="st4" d="M144.3,22.6c-.8-.6-2.5-.1-3.8,1.1l-48.3,48.3c-1.2,1.3-3.3,1.3-4.6,0L39.4,23.7c-1.3-1.3-2.9-1.8-3.8-1.1s-.4,2.2.8,3.5l51.2,51.2c1.2,1.3,3.3,1.3,4.6,0l51.2-51.2c1.2-1.3,1.6-2.8.8-3.5h0Z"/>
          <path class="st4" d="M139.3,18.8c-.8-.5-2.4,0-3.7,1.3l-43.4,43.4c-1.2,1.3-3.3,1.3-4.6,0L44.3,20.1c-1.3-1.3-2.9-1.9-3.7-1.3s-.4,2,.9,3.2l46.2,46.2c1.2,1.3,3.3,1.3,4.6,0l46.2-46.2c1.3-1.3,1.7-2.7.9-3.2h0Z"/>
          <path class="st4" d="M134,15.4c-.7-.4-2.3.3-3.6,1.5l-38.2,38.2c-1.2,1.3-3.3,1.3-4.6,0L49.6,16.9c-1.3-1.3-2.9-1.9-3.6-1.5-.7.4-.3,1.8,1,3l40.8,40.8c1.2,1.2,3.3,1.2,4.6,0l40.7-40.8c1.3-1.2,1.7-2.6,1-3.1h0Z"/>
          <path class="st4" d="M128.4,12.3c-.7-.3-2.2.4-3.5,1.7l-32.6,32.6c-1.2,1.3-3.3,1.3-4.6,0L55.1,14.1c-1.2-1.3-2.8-2-3.5-1.7-.7.3-.2,1.6,1.1,2.9l35,35c1.2,1.2,3.3,1.2,4.6,0L127.3,15.2c1.3-1.2,1.8-2.5,1.1-2.9h0Z"/>
          <path class="st4" d="M122.3,9.6c-.6-.2-2.1.6-3.3,1.9l-26.7,26.7c-1.2,1.3-3.3,1.3-4.6,0l-26.7-26.7c-1.2-1.3-2.7-2.1-3.3-1.9-.6.2,0,1.4,1.2,2.7l28.8,28.8c1.2,1.3,3.3,1.3,4.6,0l28.8-28.8c1.3-1.3,1.8-2.5,1.2-2.7h0Z"/>
          <path class="st4" d="M115.9,7.3c-.5-.2-1.9.7-3.2,2l-20.5,20.5c-1.3,1.3-3.3,1.3-4.6,0l-20.4-20.5c-1.3-1.3-2.7-2.2-3.2-2-.5.2.1,1.3,1.4,2.6l22.2,22.2c1.2,1.3,3.3,1.3,4.6,0l22.2-22.2c1.3-1.2,1.9-2.4,1.4-2.6h0Z"/>
          <path class="st4" d="M109,5.5c-.4,0-1.7.9-3,2.1l-13.8,13.7c-1.3,1.2-3.3,1.2-4.6,0l-13.8-13.8c-1.2-1.2-2.6-2.2-3-2.1s.3,1.2,1.6,2.4l15.2,15.2c1.2,1.3,3.3,1.3,4.6,0l15.2-15.2c1.3-1.3,1.9-2.3,1.6-2.4h0Z"/>
          <path class="st4" d="M101.6,4.2c-.3,0-1.5.9-2.8,2.2l-6.6,6.6c-1.3,1.2-3.3,1.2-4.6,0l-6.6-6.6c-1.3-1.3-2.5-2.2-2.8-2.2s.5,1.1,1.8,2.3l7.6,7.6c1.2,1.3,3.3,1.3,4.6,0l7.6-7.6c1.3-1.3,2.1-2.3,1.8-2.3h0Z"/>
          <path class="st4" d="M93.6,3.5c-.2,0-1,.7-1.9,1.6-.9.9-2.4.9-3.3,0s-1.8-1.7-1.9-1.6c-.2,0,.6.9,1.7,2s2.8,1.1,3.9,0,1.8-1.9,1.7-2h0Z"/>
          <path class="st4" d="M149.2,153.2c.8-.8.5-2.4-.8-3.7l-56.1-56.1c-1.3-1.2-3.3-1.2-4.6,0l-56.1,56.1c-1.3,1.3-1.6,2.9-.8,3.7.8.8,2.6.4,3.8-.9l53.1-53.1c1.2-1.2,3.3-1.2,4.6,0l53.1,53.1c1.3,1.3,3,1.7,3.8.9h0Z"/>
          <path class="st4" d="M144.5,157.3c.8-.6.4-2.2-.8-3.5l-51.4-51.4c-1.3-1.3-3.3-1.3-4.6,0l-51.4,51.4c-1.2,1.3-1.6,2.8-.8,3.5.8.6,2.5.1,3.8-1.1l48.5-48.5c1.2-1.2,3.3-1.2,4.6,0l48.5,48.5c1.2,1.3,2.9,1.8,3.7,1.1h0Z"/>
          <path class="st4" d="M139.5,161c.8-.5.4-2-.9-3.3l-46.4-46.4c-1.3-1.3-3.3-1.3-4.6,0l-46.4,46.4c-1.3,1.3-1.7,2.7-.9,3.3.8.5,2.4,0,3.7-1.3l43.6-43.6c1.2-1.3,3.3-1.3,4.6,0l43.6,43.6c1.3,1.2,2.9,1.9,3.7,1.3h0Z"/>
          <path class="st4" d="M134.2,164.5c.7-.4.3-1.8-1-3.1l-41-41c-1.3-1.3-3.3-1.3-4.6,0l-41,41c-1.3,1.2-1.7,2.6-1,3.1.7.4,2.3-.3,3.6-1.5l38.4-38.4c1.2-1.3,3.3-1.3,4.6,0l38.4,38.4c1.2,1.3,2.9,1.9,3.6,1.5h0Z"/>
          <path class="st4" d="M128.6,167.6c.6-.3.1-1.6-1.1-2.9l-35.2-35.2c-1.3-1.3-3.3-1.3-4.6,0l-35.2,35.2c-1.3,1.3-1.8,2.6-1.1,2.9.7.3,2.2-.4,3.5-1.7l32.9-32.9c1.2-1.3,3.3-1.3,4.6,0l32.9,32.9c1.3,1.3,2.8,2,3.4,1.7h0Z"/>
          <path class="st4" d="M122.6,170.3c.6-.2,0-1.4-1.2-2.7l-29.1-29.1c-1.2-1.2-3.3-1.2-4.6,0l-29.1,29.1c-1.3,1.3-1.8,2.5-1.2,2.7.6.2,2.1-.6,3.3-1.9l27-27c1.2-1.3,3.3-1.3,4.6,0l27,27c1.3,1.3,2.7,2.1,3.3,1.9h0Z"/>
          <path class="st4" d="M116.2,172.6c.5-.1-.1-1.3-1.4-2.6l-22.5-22.5c-1.2-1.2-3.3-1.2-4.6,0l-22.5,22.5c-1.3,1.2-1.9,2.4-1.4,2.6.5.2,1.9-.7,3.2-2l20.7-20.7c1.2-1.3,3.3-1.3,4.6,0l20.7,20.7c1.3,1.2,2.7,2.1,3.2,2h0Z"/>
          <path class="st4" d="M109.3,174.4c.4,0-.3-1.2-1.6-2.4l-15.5-15.5c-1.2-1.3-3.3-1.3-4.6,0l-15.5,15.5c-1.3,1.3-1.9,2.4-1.6,2.4.4,0,1.7-.9,3-2.1l14.1-14.1c1.2-1.3,3.3-1.3,4.6,0l14.1,14.1c1.3,1.3,2.6,2.2,3,2.1h0Z"/>
          <path class="st4" d="M101.9,175.8c.3,0-.5-1.1-1.8-2.4l-7.9-7.9c-1.2-1.3-3.3-1.3-4.6,0l-7.9,7.9c-1.3,1.3-2,2.3-1.8,2.4s1.5-.9,2.8-2.2l6.9-6.9c1.2-1.3,3.3-1.3,4.6,0l6.9,6.9c1.3,1.2,2.5,2.2,2.8,2.2h0Z"/>
          <path class="st4" d="M93.9,176.5c.2,0-.7-.9-1.8-2.1s-3.1-1.2-4.2,0c-1.2,1.2-2,2.1-1.8,2.1s1.1-.8,2.1-1.8c1-1,2.7-1,3.7,0s1.9,1.8,2.1,1.8h0Z"/>
          <path class="st4" d="M153.2,149.2c.8-.8.4-2.6-.9-3.8l-53.1-53.1c-1.3-1.2-1.3-3.3,0-4.6l53.1-53.1c1.3-1.3,1.7-3,.9-3.8-.8-.8-2.4-.5-3.7.8l-56.1,56.1c-1.3,1.3-1.3,3.3,0,4.6l56.1,56.1c1.3,1.3,2.9,1.6,3.7.8h0Z"/>
          <path class="st4" d="M157.3,144.5c.6-.8.1-2.5-1.1-3.8l-48.5-48.5c-1.3-1.2-1.3-3.3,0-4.6l48.5-48.5c1.2-1.3,1.8-2.9,1.1-3.8s-2.2-.4-3.5.8l-51.4,51.4c-1.3,1.3-1.3,3.3,0,4.6l51.4,51.4c1.3,1.2,2.8,1.6,3.5.8h0Z"/>
          <path class="st4" d="M161,139.6c.5-.8,0-2.4-1.3-3.7l-43.6-43.6c-1.3-1.2-1.3-3.3,0-4.6l43.6-43.6c1.2-1.3,1.9-2.9,1.3-3.7-.5-.8-2-.3-3.3.9l-46.4,46.4c-1.3,1.3-1.3,3.3,0,4.6l46.4,46.4c1.3,1.3,2.7,1.7,3.3.9h0Z"/>
          <path class="st4" d="M164.5,134.3c.4-.7-.3-2.3-1.5-3.6l-38.4-38.4c-1.3-1.2-1.3-3.3,0-4.6l38.4-38.4c1.3-1.2,1.9-2.9,1.5-3.6s-1.8-.3-3.1,1l-41,41c-1.3,1.3-1.3,3.3,0,4.6l41,41c1.2,1.3,2.6,1.7,3.1,1h0Z"/>
          <path class="st4" d="M167.5,128.6c.3-.7-.4-2.2-1.7-3.4l-32.9-32.9c-1.3-1.2-1.3-3.3,0-4.6l32.9-32.9c1.3-1.3,2-2.8,1.7-3.5s-1.6-.2-2.9,1.1l-35.2,35.2c-1.2,1.3-1.2,3.3,0,4.6l35.2,35.2c1.3,1.3,2.6,1.8,2.9,1.1h0Z"/>
          <path class="st4" d="M170.3,122.6c.2-.6-.6-2.1-1.9-3.3l-27-27c-1.3-1.2-1.3-3.3,0-4.6l27-27c1.3-1.3,2.1-2.7,1.9-3.3-.2-.6-1.4,0-2.7,1.2l-29.1,29.1c-1.2,1.3-1.2,3.3,0,4.6l29.1,29.1c1.3,1.3,2.5,1.8,2.7,1.2h0Z"/>
          <path class="st4" d="M172.6,116.2c.1-.5-.7-1.9-2-3.2l-20.7-20.7c-1.3-1.2-1.3-3.3,0-4.6l20.7-20.7c1.3-1.3,2.1-2.7,2-3.2-.2-.5-1.3.1-2.6,1.4l-22.5,22.5c-1.3,1.3-1.3,3.3,0,4.6l22.5,22.5c1.2,1.3,2.4,1.9,2.6,1.4h0Z"/>
          <path class="st4" d="M174.4,109.3c0-.4-.9-1.7-2.1-3l-14.1-14.1c-1.3-1.2-1.3-3.3,0-4.6l14.1-14.1c1.2-1.3,2.2-2.6,2.1-3,0-.4-1.2.3-2.4,1.6l-15.5,15.5c-1.3,1.3-1.3,3.3,0,4.6l15.5,15.5c1.3,1.3,2.4,1.9,2.4,1.6h0Z"/>
          <path class="st4" d="M175.8,101.9c0-.3-.9-1.5-2.2-2.8l-6.9-6.9c-1.3-1.2-1.3-3.3,0-4.6l6.9-6.9c1.2-1.3,2.2-2.5,2.2-2.8,0-.3-1.1.5-2.4,1.8l-7.9,7.9c-1.3,1.3-1.3,3.3,0,4.6l7.9,7.9c1.3,1.3,2.3,2,2.4,1.8h0Z"/>
          <path class="st4" d="M176.5,93.9c0-.2-.8-1.1-1.8-2.1-1-1-1-2.7,0-3.7s1.8-1.9,1.8-2.1-1,.7-2.1,1.8c-1.2,1.2-1.2,3.1,0,4.2,1.2,1.2,2.1,2,2.1,1.8h0Z"/>
          <path class="st4" d="M26.8,30.8c-.8.8-.4,2.5.9,3.8l53.1,53.1c1.2,1.3,1.2,3.3,0,4.6l-53.1,53.1c-1.3,1.3-1.7,3-.9,3.8.8.8,2.5.5,3.7-.8l56.1-56.1c1.2-1.2,1.2-3.3,0-4.6L30.5,31.6c-1.3-1.3-2.9-1.6-3.7-.8h0Z"/>
          <path class="st4" d="M22.7,35.5c-.6.8-.1,2.5,1.1,3.7l48.5,48.5c1.2,1.3,1.2,3.3,0,4.6l-48.5,48.5c-1.2,1.3-1.8,2.9-1.1,3.8.6.8,2.2.4,3.5-.8l51.4-51.4c1.3-1.2,1.3-3.3,0-4.6L26.2,36.3c-1.3-1.3-2.8-1.6-3.5-.8h0Z"/>
          <path class="st4" d="M19,40.5c-.5.8,0,2.4,1.3,3.7l43.6,43.6c1.3,1.2,1.3,3.3,0,4.6l-43.6,43.6c-1.2,1.3-1.9,2.9-1.3,3.7.5.8,2,.4,3.3-.9l46.4-46.4c1.3-1.3,1.3-3.3,0-4.6L22.2,41.4c-1.3-1.3-2.7-1.7-3.3-.9h0Z"/>
          <path class="st4" d="M15.5,45.8c-.4.7.3,2.3,1.5,3.6l38.4,38.4c1.3,1.3,1.3,3.3,0,4.6l-38.4,38.4c-1.3,1.2-1.9,2.9-1.5,3.6s1.8.3,3-1l41-41c1.3-1.2,1.3-3.3,0-4.6L18.6,46.8c-1.2-1.3-2.6-1.7-3.1-1h0Z"/>
          <path class="st4" d="M12.4,51.4c-.3.7.4,2.2,1.7,3.5l32.9,32.9c1.3,1.3,1.3,3.3,0,4.6L14.1,125.2c-1.3,1.2-2,2.8-1.7,3.4s1.6.1,2.9-1.1l35.2-35.2c1.3-1.2,1.3-3.3,0-4.6L15.3,52.5c-1.3-1.3-2.6-1.8-2.9-1.1h0Z"/>
          <path class="st4" d="M9.7,57.4c-.2.6.6,2.1,1.9,3.3l27,27c1.3,1.3,1.3,3.3,0,4.6l-27,27c-1.3,1.2-2.1,2.7-1.9,3.3.2.6,1.4,0,2.7-1.2l29.1-29.1c1.2-1.2,1.2-3.3,0-4.6l-29.1-29.1c-1.3-1.3-2.5-1.8-2.7-1.2h0Z"/>
          <path class="st4" d="M7.4,63.8c-.2.5.7,1.9,2,3.2l20.7,20.7c1.3,1.3,1.3,3.3,0,4.6l-20.7,20.7c-1.3,1.3-2.2,2.7-2,3.2s1.3-.1,2.6-1.4l22.5-22.5c1.2-1.2,1.2-3.3,0-4.6l-22.5-22.5c-1.3-1.2-2.4-1.9-2.6-1.4h0Z"/>
          <path class="st4" d="M5.6,70.7c0,.4.9,1.7,2.1,3l14,14.1c1.3,1.3,1.3,3.3,0,4.6l-14.1,14.1c-1.3,1.3-2.2,2.6-2.1,3,0,.4,1.2-.3,2.4-1.6l15.5-15.5c1.3-1.2,1.3-3.3,0-4.6l-15.5-15.5c-1.3-1.3-2.3-1.9-2.4-1.6h0Z"/>
          <path class="st4" d="M4.2,78.1c0,.3.9,1.5,2.2,2.8l6.9,6.9c1.3,1.3,1.3,3.3,0,4.6l-6.9,6.9c-1.2,1.3-2.2,2.5-2.2,2.8s1.1-.5,2.3-1.8l7.9-7.9c1.3-1.2,1.3-3.3,0-4.6l-7.9-7.9c-1.3-1.3-2.3-2-2.3-1.8h0Z"/>
          <path class="st4" d="M3.5,86.1c0,.2.8,1.1,1.8,2.1s1,2.7,0,3.7-1.8,1.9-1.8,2.1.9-.7,2.1-1.8,1.2-3.1,0-4.2c-1.2-1.2-2.1-2-2.1-1.8h0Z"/>
        </g>
        <g>
          <g>
            <path class="st3" d="M37.9,146l6.4-7.7c.2-.2.4-.2.7,0l6.2,5.1c.2.2.2.4,0,.6l-1.1,1.3c-.2.2-.4.2-.7,0l-4.4-3.7-1,1.2,2.7,2.2c.2.2.2.4,0,.6l-.9,1.1c-.2.2-.4.2-.7,0l-2.7-2.2-2.5,2.9c-.2.2-.4.2-.7,0l-1.4-1.2c-.2-.2-.2-.4,0-.6h0Z"/>
            <path class="st3" d="M53.8,157.4l.2-1.4-4.5-2.7-1.2.9c-.2.1-.4.2-.7,0l-1.8-1.1c-.3-.2-.3-.4,0-.6l9-6.3c.2-.2.4-.2.7,0l1.8,1.1c.2.1.3.3.3.6l-1.2,10.9c0,.4-.3.5-.6.3l-1.8-1.1c-.2-.1-.3-.3-.3-.6h0ZM54.3,153.6l.6-4.5-3.6,2.7,3,1.8h0Z"/>
            <path class="st3" d="M60,160.5l3.3-9.4c0-.3.3-.4.6-.3l1.7.6c.2,0,.4.2.4.4l2.6,7.7,2-5.9c0-.3.3-.4.6-.3l1.7.6c.3.1.4.3.3.6l-3.3,9.4c0,.3-.3.4-.6.3l-1.7-.6c-.2,0-.4-.2-.4-.4l-2.7-7.7-2,5.9c0,.3-.3.4-.6.3l-1.7-.6c-.3-.1-.4-.3-.3-.6Z"/>
            <path class="st3" d="M83,166.1l.6-7.8-2.9-.2c-.3,0-.4-.2-.4-.5v-1.7c.1-.3.3-.4.6-.4l8.6.6c.3,0,.4.2.4.5v1.7c-.1.3-.3.4-.6.4l-2.9-.2-.6,7.8c0,.3-.2.4-.5.4h-1.8c-.3-.2-.4-.3-.4-.6h0Z"/>
            <path class="st3" d="M92.4,163.3l-.4-3.4c-.2-2.2.8-3.9,3.2-4.1l4-.4c2.4-.3,3.8,1.1,4.1,3.3l.4,3.4c.2,2.2-.8,3.9-3.2,4.1l-4,.4c-2.4.3-3.8-1.1-4.1-3.3ZM100.2,163.6c.5,0,.9-.2.8-1.1l-.4-3.5c0-.9-.4-1-1-.9l-4,.4c-.6,0-.9.2-.8,1.1l.4,3.5c0,.9.5,1,1,.9l4-.4h0Z"/>
            <path class="st3" d="M108.5,164.3l-3-9.5c0-.3,0-.5.3-.6l1.7-.6c.3,0,.5,0,.6.3l1.2,3.7,1.5-.5,1.6-4.7c0-.2.2-.4.5-.4l2.1-.7c.4-.1.6.1.4.5l-2.1,5.8,5,3.5c.3.2.3.5,0,.6l-2.1.7c-.2,0-.4,0-.6,0l-4-2.9-1.5.5,1.1,3.6c0,.3,0,.5-.3.6l-1.7.6c-.3,0-.5,0-.6-.3h0Z"/>
            <path class="st3" d="M122.2,159.4l-4.7-8.8c-.1-.3,0-.5.2-.6l7.3-3.9c.3-.1.5,0,.6.2l.8,1.5c.1.3,0,.5-.2.6l-5.3,2.8.8,1.4,3.2-1.7c.3-.1.5,0,.6.2l.7,1.3c.1.3,0,.5-.2.6l-3.2,1.7.8,1.5,5.3-2.8c.3-.1.5,0,.6.2l.8,1.5c.1.3,0,.5-.2.6l-7.3,3.9c-.3.1-.5,0-.6-.2h0Z"/>
            <path class="st3" d="M133.8,152.8l-6.3-7.8c-.2-.2-.2-.5,0-.6l1.4-1.1c.2-.2.4-.2.6-.1l7.9,1.8-3.9-4.8c-.2-.2-.2-.5,0-.6l1.4-1.1c.2-.2.5-.2.6,0l6.3,7.8c.2.2.2.5,0,.6l-1.4,1.1c-.2.2-.4.2-.6.1l-7.9-1.8,3.9,4.8c.2.2.2.5,0,.6l-1.4,1.1c-.2.2-.5.2-.6,0h0Z"/>
          </g>
          <g>
            <path class="st3" d="M81.9,21c.4,2.1-.4,3.5-2.9,4h-.5c0,0,.1.7.1.7,0,.3,0,.5-.4.5l-1.7.3c-.3,0-.5,0-.5-.4v-.6h-.1c-2.3.5-3.6-.4-4.2-2.4,0-.3,0-.5.4-.6l1.8-.4c.3,0,.4,0,.6.4.2.4.5.5,1,.4l3-.6c.7-.1.9-.4.8-.9-.1-.6-.4-.7-1-.6l-3.5.4c-2.3.3-3.4-.4-3.8-2.4-.4-2,.4-3.5,2.9-4v-.6c-.2-.3,0-.5.2-.5l1.7-.3c.3,0,.5,0,.5.4v.6c.1,0,.4,0,.4,0,2.3-.4,3.6.4,4.2,2.4,0,.3,0,.5-.4.6l-1.8.4c-.3,0-.4,0-.6-.4-.2-.4-.5-.5-1-.4l-2.8.6c-.7.1-.9.4-.8.9s.4.7,1,.6l3.5-.4c2.3-.3,3.4.4,3.8,2.4h0Z"/>
            <path class="st3" d="M83.3,20.4v-3.4c0-2.2,1.1-3.8,3.5-3.8h4.1c2.5-.1,3.7,1.4,3.7,3.6v3.4c0,2.2-1.1,3.8-3.5,3.8h-4.1c-2.5.1-3.7-1.4-3.7-3.6ZM91,21.4c.5,0,.9-.1.9-1v-3.6c0-.9-.4-1-1-1h-4.1c-.6,0-.9.2-.9,1.1v3.6c0,.9.4,1,1,1,0,0,4.1,0,4.1,0Z"/>
            <path class="st3" d="M96.5,20.4l.6-3.3c.4-2.2,1.8-3.5,4.2-3.1l3.5.6c2.2.4,3.2,1.8,3,3.8,0,.3-.2.4-.5.4l-1.8-.3c-.3,0-.4-.2-.4-.5,0-.5-.3-.6-.8-.7l-3.5-.6c-.6-.1-.9,0-1.1.9l-.6,3.5c-.2.9.2,1.1.7,1.2l3.5.6c.5,0,.9,0,1.1-.9v-.4c0,0-1.9-.3-1.9-.3-.3,0-.4-.2-.4-.5l.2-1.4c0-.3.2-.4.5-.4l4.2.7c.3,0,.4.2.4.5l-.4,2.1c-.4,2.2-1.8,3.5-4.2,3.1l-3.5-.6c-2.4-.4-3.3-2.1-3-4.3h0Z"/>
          </g>
        </g>
        <path class="st3" d="M90,4.5c11.5,0,22.7,2.3,33.3,6.7,10.2,4.3,19.3,10.5,27.2,18.3s14,17,18.3,27.2c4.5,10.5,6.7,21.7,6.7,33.3s-2.3,22.7-6.7,33.3c-4.3,10.2-10.5,19.3-18.3,27.2s-17,14-27.2,18.3c-10.5,4.5-21.7,6.7-33.3,6.7s-22.7-2.3-33.3-6.7c-10.2-4.3-19.3-10.5-27.2-18.3s-14-17-18.3-27.2c-4.5-10.5-6.7-21.7-6.7-33.3s2.3-22.7,6.7-33.3c4.3-10.2,10.5-19.3,18.3-27.2s17-14,27.2-18.3c10.5-4.5,21.7-6.7,33.3-6.7M90,0C40.3,0,0,40.3,0,90s40.3,90,90,90,90-40.3,90-90S139.7,0,90,0h0Z"/>
        <path class="st3" d="M149.3,130.7h0c-1-.7-1.2-1.9-.6-2.9,8.5-13.2,12.3-29,10.7-44.7-2.2-21.9-14.7-41.5-33.5-52.8-1-.6-1.3-1.9-.8-2.9h0c.6-1,1.9-1.4,3-.8,20,12,33.2,32.8,35.6,56.1,1.7,16.7-2.4,33.4-11.4,47.5-.6,1-2,1.3-3,.6h0Z"/>
        <path class="st3" d="M30.7,130.7h0c1-.7,1.2-1.9.6-2.9-8.5-13.2-12.3-29-10.7-44.7,2.2-21.9,14.7-41.5,33.5-52.8,1-.6,1.3-1.9.8-2.9h0c-.6-1-1.9-1.4-3-.8-20,12-33.2,32.8-35.6,56.1-1.7,16.7,2.4,33.4,11.4,47.5.6,1,2,1.3,3,.6h0Z"/>
        <g>
          <polygon class="st2" points="90.1 39.7 56.1 60.2 56.1 119.8 90.1 140.3 123.9 119.8 123.9 60.2 90.1 39.7"/>
          <path class="st3" d="M90.1,39.7l33.9,20.5v59.6l-33.9,20.5-34-20.5v-59.6l34-20.5M90.1,37.7l-.9.5-34,20.5-.8.5v61.5l.8.5,34,20.5.9.5.9-.5,33.9-20.5.8-.5v-61.5l-.8-.5-33.9-20.5-.9-.5h0Z"/>
          <g>
            <path class="st3" d="M85.5,67c.5,0,2.2.3,2.3,1.3s-.4,2.1-1.1,2.1-1.6,0-2.1-.2-.8-.2-.9-.8-.5-.3-.2-1.4,0-1.5.8-1.5"/>
            <path class="st3" d="M74.7,64.1c-.1,0-2.2,0-2.2,0l-1.2,1.7,1.7,6.1h7.4l2.1-1.6h.2c0-.1.2-.2.2-.2l-.2-1s0-1.2-.6-1.9c-.6-.7-1.8-1.5-2.7-1.4s-2,.4-2.3.9c-.4.5-.4.4-.5.3s0-.2,0-.4-1.2-2.1-2-2.6h0Z"/>
            <polygon class="st3" points="106.6 65.9 95.6 65.9 92.6 63.3 93 71.8 97.5 69.6 99.3 71.8 106.6 71.8 106.6 65.9"/>
            <path class="st1" d="M100.3,71.9c-1,0-1.7-.2-2.2-.8-.7-.7-.7-1.6-.7-1.9v-3.2h2.1v3.1c0,0,0,.8.8.8s.4,0,.5-.2c.2-.2.2-.6.2-.6v-3.1h2.1v3.2c0,.1,0,1.1-.6,1.8-.5.5-1.2.8-2.2.8h0ZM79.8,71.8c-3.1,0-3.2-2.6-3.2-2.9,0-1.4.8-3.1,3-3.1s1.6.3,2.1.8c.8.9.8,2.1.8,2.1v.6h-3.8c0,.4.5.8,1,.8s.9-.6.9-.6v-.2c0,0,.3,0,.3,0l1.5.8v.2c-.7.9-1.6,1.4-2.7,1.4h0ZM80.4,68c0-.2-.3-.6-.8-.6s-.7.3-.8.6h1.6,0ZM85.4,71.7c-1.3,0-2.7-.9-2.7-3s1.6-2.9,2.7-2.9,1.2.3,1.5.4v-3.8h2.1v9.2h-2v-.4c-.3.2-.8.5-1.6.5h0ZM85.9,67.6c-.1,0-1,0-1,1.2s.7,1.1,1,1.1,1.1,0,1.1-1.1-1-1.1-1.1-1.1h0ZM106.4,71.6v-9.2h2v9.2h-2ZM103.7,71.6v-9.2h2v9.2h-2ZM90.8,71.6v-8.8h3.1c1.9,0,2.8,1.2,2.8,2.3s-.4,1.4-.6,1.7c.8.4,1.3,1,1.3,2.3,0,2.5-2.7,2.5-2.8,2.6h-3.8ZM94.3,69.8c.1,0,.9-.2.9-.9s-.8-.9-.9-.9h-1.2v-1.9h.8c.2,0,.7,0,.7-.7s-.5-.7-.9-.7h-.7v5.1h1.3,0ZM74.7,71.6l-1.8-2.9v-2.2h.6c.2,0,.9,0,.9-.9s-.8-.9-1.1-.9h-.7v7h-2.1v-9h2.3c2.5,0,3.7,1,3.7,2.9s-1.2,2.3-1.9,2.5l2.5,3.6h-2.5,0Z"/>
            <path class="st3" d="M108.3,62.7v8.8h-1.6v-8.8h1.6M105.5,62.7v8.8h-1.6v-8.8h1.6M88.8,62.7v8.8h-1.6v-.7s-.6.8-1.8.8-2.4-.8-2.4-2.8,1.6-2.7,2.5-2.7,1.7.6,1.7.6v-4h1.7M85.8,70.1h0c0,0,1.3,0,1.3-1.3s-1.3-1.3-1.3-1.3c0,0-1.2,0-1.2,1.4s1,1.3,1.2,1.3M72.9,62.8c2,0,3.5.6,3.5,2.7s-2,2.3-2,2.3l2.4,3.5h-2l-1.7-2.7v-2h.4c0,0,1.1,0,1.1-1.1s-1.1-1.1-1.2-1.1h-.8v7h-1.7v-8.6h2.1M93.9,63c1.7,0,2.6,1,2.6,2.1s-.8,1.7-.8,1.7c.9.4,1.4.9,1.4,2.2,0,2.3-2.6,2.3-2.6,2.3h-3.6v-8.4h2.9M92.7,70h1.6s1.1-.1,1.1-1.1-.8-1.1-1.1-1.1h-1v-1.5h.6c.2,0,.8,0,.8-.9s-.8-.9-1.1-.9h-.9v5.5M79.7,66c2.8,0,2.7,2.7,2.7,2.7v.4h-3.8c0,.6.5,1.2,1.2,1.2s1.1-.7,1.1-.7l1.3.7c-.6.9-1.4,1.3-2.4,1.3-2.9,0-3-2.4-3-2.7s0-2.9,2.8-2.9M78.6,68.2h2.1s0-1-1-1-1.1,1-1.1,1M99.3,66.3v2.9s0,1,1,1,.9-1,.9-1v-2.9h1.7v3s.2,2.4-2.6,2.4-2.7-2.1-2.7-2.4v-3h1.7M108.7,62.3h-2.4v9.6h2.4v-9.6h0ZM105.9,62.3h-2.4v9.6h2.4v-9.6h0ZM89.2,62.3h-2.5v3.7c-.3-.2-.8-.3-1.3-.3-1,0-2.4.6-2.8,2.2-.1-.4-.3-.9-.7-1.4-.5-.6-1.3-.8-2.2-.8-2.4,0-3.2,1.8-3.2,3.3s.9,3.1,3.4,3.1,2.1-.5,2.7-1.5l.2-.4-.4-.2-.8-.4h1c.3,1.6,1.6,2.3,2.8,2.3s1-.2,1.4-.3v.3h2.4v-9.6h0ZM79.2,67.8c0,0,.2-.2.4-.2s.3,0,.4.2h-.9,0ZM85.8,69.7c-.3,0-.8-.2-.8-.9s.6-.9.8-1c.2,0,.9.1.9.9s-.8.9-.9.9h0ZM79.1,69.6h1.3c-.1.1-.3.3-.6.3s-.6-.1-.7-.3h0ZM72.9,62.4h-2.5v9.4h2.5v-2.6l1.5,2.4v.2h3.1l-.4-.6-2.1-3c.8-.3,1.7-1,1.7-2.6s-.4-2-1.2-2.5c-.6-.4-1.5-.6-2.7-.6h0ZM73,64.9h.5c.3,0,.8,0,.8.7s-.5.7-.7.7h-.6v-1.4h0ZM93.9,62.6h-3.3v9.2h4s.7,0,1.4-.3c.5-.2,1-.6,1.3-1.3.1.4.3.8.6,1.1.5.5,1.3.8,2.4.8s1.8-.3,2.3-.9c.7-.8.7-1.8.7-1.9v-3.4h-2.5v3.3c0,.2,0,.6-.5.6s-.6-.4-.6-.6v-3.3h-2.5v1.7c-.2-.4-.5-.7-.9-.9.2-.3.5-.9.5-1.6,0-1.3-.9-2.5-2.9-2.5h0ZM93.1,64.9h.5c.4,0,.7.2.7.5s0,.5-.4.5h-.7v-1h0ZM93.1,68.2h1.2c.2,0,.7,0,.7.7s-.6.7-.7.7h-1.1v-1.4h0Z"/>
            <rect class="st3" x="105.6" y="62.3" width=".8" height="4.4"/>
          </g>
          <g>
            <path class="st3" d="M61.1,116.9l25.6,15.5v-55.6h-25.6v40.2h0ZM67.9,83.5h12v36.8l-12-7.3v-29.5h0Z"/>
            <polygon class="st3" points="118.9 91.5 118.9 76.8 93.3 76.8 93.3 132.4 118.9 116.9 118.9 98.3 106.1 98.3 106.1 105.1 112.1 105.1 112.1 113 100.1 120.3 100.1 83.5 112.1 83.5 112.1 91.5 118.9 91.5"/>
          </g>
          <g>
            <circle class="st5" cx="90.1" cy="54.8" r="6.1"/>
            <g>
              <path class="st3" d="M89.7,57.6c-.2-.1-.3-.3-.4-.5,0,0,0-.2-.2-.3,0,0,0,0,0-.1,0,0-.1-.1-.1-.2-.3-.8-.4-1.3-.5-2,0-.4-.4-.8-.7-1.2,0,0-.1-.1-.2-.2-.1-.2-.3-.4-.4-.5l-.2-.2c-.6-.5-.9-.8-1.3-1,0,0-.2-.1-.3-.2h0c-.2,0-.3,0-.5,0-.4,0-.8.1-1.1.4-.2.2-.5.2-.8.3-.3.1-.7.2-1,.5,0,0,0,0-.2.1,0,0,0,0,0,0,0,0,0,0-.1.1,0,0,0,0-.2,0h0c-.1,0-.2,0-.3,0-.4,0-.6.3-.9.5h0c-.2.2-.5.3-.6.4-.5,0-.9.1-1.2.4-.4.3-.8.6-1.2.8,0,0-.2,0-.3,0s-.2,0-.4-.1c-.2-.1-.2-.4-.1-.6.2-.3.4-.5.7-.7.3-.2.7-.6.5-1.2-.2-.5-.8-.7-1.2-.8-.1,0-.2,0-.2,0-.1,0-.2-.1-.3-.2,0,0-.2-.1-.3-.2,0,0,0,0,0,0,0,0-.1,0-.2.1-.2.3-.2.5-.1.8,0,.4.5.8,1,.9,0,0,0,0,.1,0-.2.2-.4.4-.6.6-.3.4-.4,1-.2,1.5.2.5.6.8,1.1.9.2,0,.5,0,.8,0h0c0,.3,0,.5.2,1,0,0,0,0,0,0,0,0-.3.1-.3.1h-.3c-.2,0-.3.2-.4.3,0,0,0,.2,0,.2,0,.1,0,.2-.1.3,0,0-.2-.2-.2-.2,0,0-.1,0-.2,0-.2,0-.3,0-.4.2,0,0,0,0-.1,0-.1,0-.2.2-.2.3-.2,0-.3.2-.4.4s0,.2,0,.3c0,0,0,0,0,.1,0,0,0,0,0,0,0,0,0,.2,0,.3,0,.2,0,.2.2.3.1,0,.4.2.5.2h0c0,0,.1,0,.2,0,0,0,0,0,0,0,.2,0,.6,0,.8,0,.2,0,.4-.3.5-.5,0,0,0,0,0,0,0,0,0,0,0,0,0,0,.1,0,.2,0,.2,0,.5-.1.6-.2,0,0,.1-.1.2-.2,0,0,.1-.1.2-.2,0,0,.1,0,.2,0h0c.2,0,.4,0,.6,0s.4,0,.5-.1h.1c.1-.1.3-.2.4-.3.3-.2.4-.4.5-.6h0c0-.1,0-.2.1-.3.2,0,.3,0,.5,0,.2,0,.4,0,.6,0,.2,0,.6,0,.9,0s.3,0,.5,0c0,0,0,0,0,0,0,0-.2,0-.3,0-.2,0-.4,0-.6,0,0,0,0,0-.1,0-.2,0-.3,0-.4.2,0,0,0,.2,0,.3l.3.6c0,0,.1.2.2.2h.2s0,0,0,0c0,.1.2.2.3.3.2.2.5.2.8.2,0,0,.2,0,.3,0,.3-.1.6-.2.9-.3h.5c.2-.1.3-.4.4-.5h0s0,0,0-.2c0,.1,0,.2.2.3,0,0,.2.1.4.1.2,0,.4,0,.5-.1.1,0,.2,0,.3,0s.2,0,.3,0c.2,0,.4,0,.6,0,.1,0,.2-.1.3-.2,0,0,0,0,0,0,.2.2.6.5,1.3.5.2,0,.3-.1.4-.2,0,0,0-.1,0-.2.2,0,.4-.1.4-.2,0,0,0-.2,0-.2,0,0,0,0-.3-.2h0ZM85,56.8c0,0,.1,0,.2,0,.1,0,.2,0,.4,0,0,0,0,.1-.1.2,0,0-.2.2-.2.4-.1-.2-.2-.3-.2-.4Z"/>
              <path class="st3" d="M105.9,58.9h0s0,0,0,0c0,0,0,0,0-.2s0-.1,0-.2c0-.2-.2-.3-.4-.4,0,0,0-.2-.1-.2-.3-.2-.4-.3-.5-.4,0,0,0,0,0,0,0,0,0,0-.1,0-.2,0-.3.1-.4.2,0,0,0,0,0,0,0,0,0,0,0,0,0,0,0-.1,0-.2,0-.1,0-.2-.1-.4-.1-.2-.4-.2-.6-.2h0c-.1,0-.2,0-.2,0,0,0,0-.1,0-.2h0c0,0,0-.1,0-.2,0-.2,0-.5,0-.7h0c0,0,0,0,.1,0h0c.3,0,.6,0,.8-.2.4-.3.7-.7.7-1.2,0-.2,0-.4-.2-.7-.2-.3-.4-.6-.7-.9.2,0,.3,0,.5-.2.4-.2.5-.7.5-1.2,0-.2-.1-.4-.2-.4,0,0,0,0,0,0,0,0-.2,0-.3.2,0,0,0,0,0,0-.1,0-.2.1-.4.2,0,0-.2,0-.2,0-.4.1-1,.4-1.1.9,0,.5.3.8.6,1.2.1,0,.2.2.3.3.2.2.3.4.3.6,0,0-.1.2-.2.2,0,0-.2,0-.2,0-.3,0-.6-.2-.8-.3h0c-.6-.4-1.2-.9-2-1-.3,0-.5-.2-.8-.4,0,0-.1,0-.2-.1-.3-.2-.5-.2-.9-.3-.1,0-.2-.1-.4-.2,0,0-.1-.1-.2-.2-.3-.2-.6-.3-1-.4,0,0,0,0-.1,0,0,0-.2,0-.2,0,0-.1-.2-.3-.4-.4-.2-.2-.6-.3-.9-.3s-.1,0-.2,0c-.2,0-.3.2-.5.3h0s0,0,0,0c0,0-.2.1-.2.2-.2.2-.5.4-.7.5-.9.6-1.2.9-1.6,1.4-.6.6-.8,1.4-.9,2.2-.2.7-.3,1.4-.8,1.9-.2.2-.3.3-.3.3,0,0,0,0,0,0,0,0-.1.2,0,.4,0,0,.2.2.5.2,0,0,0,.1,0,.2,0,.1.2.2.3.2.4,0,.8-.2,1.2-.5.2.3.6.2.8.2,0,0,.2,0,.2,0,0,0,.2,0,.4.1.2,0,.4.2.6.2.2,0,.3,0,.4-.2,0-.1.1-.2.1-.3,0,.1,0,.2,0,.3,0,0,0,0,0,0h0c0,0,0,.2.1.2,0,0,.2.1.3.1h.2s0,0,0,0c0,0,.1.1.2.2.4,0,.7.2,1,.3,0,0,.2,0,.4,0,.3,0,.6-.3.7-.6h0s.1,0,.2,0c.2-.1.3-.3.4-.5,0,0,0,0,0,0,0,0,0-.2,0-.3,0,0-.1-.1-.2-.2-.2,0-.3,0-.5,0h-.4s0,0,0,0h0c.4,0,.7,0,1,0,.3,0,.6,0,.8,0h.1c.1,0,.3,0,.4,0s.3,0,.4,0c0,0,0,0,0,.1,0,.3,0,.5.3.7.1.2.3.2.4.3,0,0,.2,0,.2.1.1,0,.2,0,.3,0s.2,0,.3,0c0,0,.1,0,.2,0,.5,0,.8.3,1.2.6.2.1.4.1.7,0,0,0,.2.2.2.3.2.2.4.2.6.2h.4c0,0,.1,0,.2,0h0c0,0,.6-.2.6-.2,0,0,0,0,0,0,.2,0,0-.3,0-.5h0ZM95.2,56.8c0,.1-.2.3-.3.5,0,0,0,0,0,0,0-.2-.1-.3-.2-.4.2,0,.4,0,.5,0h0Z"/>
            </g>
            <g>
              <path class="st0" d="M97.2,57.6s0,0,0,0h0c0,0-.1,0-.2,0h-.3s-.1.2-.1.3c0,.1.2.2.3.2,0,0,0,0,.1,0,0,0,.1,0,.2,0,0-.2.1-.3.1-.4h0s0,0,0,0Z"/>
              <path class="st0" d="M105.1,58.1c0,0-.2-.2-.3-.2,0,0,0,0-.1,0h0s0,0,0,0c-.1,0-.2.1-.2.2s0,.2.2.3h0c0,0,.1.1.2.1h0c0,0,.1,0,.2,0,0,0,.1-.1,0-.2h0Z"/>
              <path class="st0" d="M105.6,58.9s0,0,0,0c0,0,0,0,0-.2,0,0,0-.2,0-.2,0,0-.1-.1-.2-.1s0,0,0,0c-.1,0-.2.1-.2.3,0,.2,0,.3.1.5,0,0,0,.1,0,.1h.3c0-.1,0-.1,0-.1,0,0,0-.1,0-.2h0Z"/>
              <path class="st0" d="M105,59.2c0-.2,0-.4-.2-.6h0c-.2,0-.3-.2-.4-.3s0,0-.1-.1c0,0-.1-.1-.2-.2,0,0-.1-.1-.2-.2,0,0,0-.2,0-.3,0,0,0-.2,0-.2,0,0,0,0,0,0,0,0,0-.2-.2-.2,0,0-.1,0-.2,0-.2,0-.4,0-.4-.2,0-.1,0-.2,0-.3,0,0,0,0,0-.1,0-.2,0-.5,0-.7,0,0,0,0,0,0,0,0,0-.2,0-.2,0,0,0,0,0,0s0,0,0,0c0,0,0,0,0,0,0,0,.2,0,.3,0,.2,0,.4,0,.6-.1.3-.2.7-.5.7-1,0-.5-.3-.9-.9-1.4,0,0,0,0,0,0,0,0-.2-.1-.2-.2s.2-.1.3-.1c0,0,0,0,0,0h0c.1,0,.3,0,.4-.2.4-.3.4-.7.3-1h0s0-.1,0-.1c0,0,0,0,0,0s0,0,0,0c0,0,0,0-.2.1-.1,0-.3.1-.4.1,0,0-.2,0-.3,0-.4.1-.6.3-.7.6,0,.1,0,.3,0,.5.1.2.3.4.5.6.3.3.6.5.7.9,0,.2,0,.4-.3.6-.1,0-.3.1-.4.1s-.4,0-.6-.2c-.2-.1-.4-.3-.7-.4-.3-.2-.7-.4-1-.6-.2,0-.3-.1-.5-.1-.2,0-.5,0-.7-.3,0,0-.1,0-.2-.1-.2-.1-.4-.3-.6-.3,0,0-.2,0-.2,0-.1,0-.2,0-.3-.1,0,0,0,0-.1,0-.2-.1-.3-.3-.5-.3-.3-.2-.6-.2-1-.3-.1,0-.2-.1-.3-.2,0,0,0-.1-.2-.2-.3-.2-.5-.4-.9-.4h0c-.2,0-.3.1-.4.2-.3.3-.7.5-1,.8-.5.4-1,.8-1.5,1.2-.4.5-.6,1-.8,1.6,0,0,0,.2,0,.2,0,.2,0,.3-.1.5-.2.8-.4,1.6-1.2,2.2,0,0,0,0,0,.1,0,0,.4.1.7-.2.2-.3.3-.5.6-.8,0,0,0,0,0,0s0,0,0,0c0,0,0,.2-.2.3,0,0-.1.2-.2.3,0,.2-.3.4-.5.6,0,0,0,0,0,0,0,0,0,0,0,0,0,0,0,0,.1,0h0c.5,0,.8-.3,1.1-.6,0,0,0,0,0,0h0s0,0,.1,0c0,0,.2.2.3.2h0c.2,0,.3,0,.5,0h.1c.2,0,.3.1.5.2.1,0,.2,0,.3.1h0c.2,0,.3-.2.3-.3,0,0,0-.2,0-.3,0,0,0,0,0-.2,0,0,0,0,.1,0h.1s0,0,0-.1c0-.2-.1-.2-.2-.4,0,0-.1-.2-.2-.3,0-.1-.2-.2-.3-.4-.1-.1-.2-.2-.3-.4,0,0,0,0,0,0,0,0,0,0,0,0,0,0,.1,0,.2.1.2.1.3.3.6.3.2,0,.4,0,.6,0,0,0,0,0,0-.1,0-.2-.2-.4-.2-.6,0-.2-.2-.6,0-.9,0,0,0,0,0,0h0s0,0,0,0h0c0,.5,0,.9.3,1.2,0,.1.2.2.3.2,0,0,.2,0,.2.1,0,0,0,.2,0,.3l-.3.5c0,.1-.2.2-.2.3,0,.1,0,.2,0,.3h0s0,0,0,0c-.1-.2-.2-.4,0-.6,0,0,.3-.5.4-.6,0,0,0,0,0-.1,0,0-.2-.1-.3-.1h0c0,0,0,0,0,0,0,0,0,0,0,0l-.4.7h0c0,0,0,.2,0,.2,0,.1,0,.2,0,.3,0,0,0,0,0,0,0,.1,0,.2.1.3,0,0,0,0,.1,0h0c0,0,0,0,.2,0,0,0,0,0,.2.1,0,0,0,0,.2.1.1,0,.3,0,.4.1.2,0,.3,0,.5.2,0,0,.2,0,.3,0s.2,0,.3-.1c.1-.1.2-.2.2-.4,0-.1,0-.2.2-.2s0,0,0,0c0,0,.2-.2.3-.3,0,0,0,0,0-.1s0,0,0,0c0,0,0,0,0,0h-.6c-.2,0-.2.2-.3.3,0,0,0,.1,0,.2,0,0-.1.1-.2.1,0,0-.1,0-.1,0-.2,0-.5-.1-.6-.3,0,0,0-.1,0-.2.1-.1.3-.3.5-.5.2,0,.5-.2.6-.4,0,0,0,0,0-.1,0,0,0-.1,0-.2,0,0,0,0,0,0,0,.1,0,.2,0,.3,0,0,0,0,0,0h0s0,0,0,0h.2c.2,0,.5,0,.7,0s.4,0,.7,0h0c0,0,.2,0,.3,0,0,0,.2,0,.3,0h0c.3,0,.5-.2.6-.4,0-.2,0-.5,0-.9h0c0,0,0,0,0,0,0,0,0,0,0,0,.1.3.2.7.2.9,0,.2.1.5.3.8.2.3.6.5,1,.5s.2,0,.3,0h.1c.5,0,.9.2,1.3.6h0s0,0,0,0h0c-.3-.2-.6-.5-1-.5,0,0-.1,0-.2,0-.1,0-.2,0-.3,0,0,0-.2,0-.3,0s-.2,0-.3,0c-.4-.1-.8-.6-.9-.9,0,0,0,0,0,0s0,0,0,0c0,0,0,0,0,0,0,0,0,.2,0,.3,0,.2.1.6.4.7,0,0,0,0,.1,0,.2,0,.3.2.5.2s0,0,.1,0c.1,0,.2,0,.3,0,.3,0,.7.1,1,.3,0,0,0,0,.1.1,0,0,.1.1.2.1,0,0,0,0,.2,0,.1,0,.2,0,.3,0s0,0,.1,0c.1,0,.2,0,.2.2,0,0,0,.1.2.2,0,0,.2.1.3.1h.4ZM93.4,57.6s0,0-.1,0-.1,0-.2,0c0,0-.1-.2-.1-.3,0,0,0,0,0,0,0,0,0,0,0,0,0,0,.2,0,.3.1,0,0,.1.1,0,.2h0ZM93.5,55.8s0,0-.1,0c0,0,0,0,0-.1,0,0,0,0-.1,0h0c0,0,0,0-.2,0,0,0-.1,0-.1.1-.1.1-.3.2-.3.4,0,0,0,0,0,0,0,0,0,.1,0,.1h0s0,0,0,0c0,0,0,0,0,0,0-.3,0-.5.2-.7.1,0,.2-.2.3-.3,0,0,0-.1.1-.2,0,0,0,0,.2,0,0,0,.2.3.2.4,0,0,0,.1,0,.1h0ZM95.7,52.8s0,0-.2.1c-.2.2-.4.3-.5.5,0,0,0,.2-.1.3,0,0,0,0,0,0,0,0,0,0,0,0,0,0,0-.3,0-.4,0-.3.3-.5.6-.8,0,0,0,0,.1,0,0,0,0,0,.1,0,0,0,0,.1,0,.2h0Z"/>
            </g>
            <g>
              <path class="st0" d="M83.5,57.9s0,0,0,0c0,0,0-.1,0-.2,0-.1,0-.2-.2-.2-.2,0-.3,0-.5,0,0,0,0,0,0,0,0,0,0,0,0,.1,0,0,0,0,0,0,0,0,0,.1,0,.2,0,.1,0,.2.1.2h0c.1,0,.3,0,.4-.2,0,0,0,0,0-.1h0Z"/>
              <path class="st0" d="M75.5,57.7h0s0,0-.1,0h0c0,.1-.2.2-.3.3,0,0,0,0,0,.1s0,0,0,0c0,0,0,0,0,0,0,0,0,0,.1,0s0,0,0,0c.2,0,.4-.4.4-.4,0,0,0,0-.1-.2h0Z"/>
              <path class="st0" d="M74.9,58.5s-.2-.2-.2-.2h0c0,0-.2.2-.2.2,0,.3,0,.3-.1.5,0,0,0,0,0,.1,0,0,.3.1.4.1h0s0,0,.1-.3c0-.1,0-.2.1-.4,0,0,0,0,0,0h0ZM74.7,59.2h0Z"/>
              <path class="st0" d="M84.4,58.5c.1,0,.3,0,.3-.1.1-.2.2-.3.3-.5,0-.2,0-.3,0-.5-.2-.4-.3-.5-.4-.7h0s0,0,0,0c0,0-.1,0-.2,0h0c0,0-.1,0-.2,0h0l.4.8c0,0,0,.1,0,.2s-.2.4-.3.5c0,0,0,0,0,0,0,0,0,0,0,0,0-.1,0-.5,0-.6,0-.1-.4-.7-.4-.7h0c0,0-.1-.2-.1-.3s0,0,0,0c0,0,.1,0,.2,0,.2,0,.3,0,.4-.2.2-.3.3-.5.3-.9,0,0,0,0,0,0s0,0,0,0c0,.3,0,.7-.2,1,0,0,0,0,0,0s0,0,0,0c0,0,.4,0,.6,0,.2,0,.3,0,.5,0,0,0,0,0,.1,0,0,0,0,0,0,0-.1.1-.2.3-.2.5h-.1c-.1.2-.3.4-.3.6,0,0,0,0,0,0s0,0,0,0c0,0,0,0,0,0s0,0,0,0l-.2.2c0,0,0,.2,0,.3,0,0,0,0,0,.2,0,.1.2.2.3.2.2,0,.4,0,.6-.1,0,0,0,0,0,0,.2,0,.5,0,.8,0,.2,0,.4-.2.6-.3,0,0,.2,0,.2.1.3.3.6.4,1,.4h0s0,0,0,0,0,0,0,0h-.2c-.2-.2-.4-.4-.4-.6,0-.2-.2-.4-.3-.5,0,0,0,0,0,0,0,0,0,0,0-.2h0c.3,0,.4.3.6.6.1.2.5.5.8.5s0,0,.1,0c0,0,0,0,0,0s0,0,0,0c0,0-.2,0-.2,0-.2-.1-.4-.3-.5-.6,0,0,0-.2-.2-.2,0,0,0-.1-.2-.2,0,0,0,0,0-.1-.2-.6-.4-1.2-.5-2,0-.1,0-.4-.2-.5-.3-.5-1-1.3-1-1.3,0,0,0,0,0,0h0s-1.3-1.1-1.3-1.1c-.2-.2-.3-.2-.5-.3-.1,0-.2,0-.4,0s-.4,0-.5,0c0,0-.2.1-.3.2-.2,0-.3.2-.5.3-.1,0-.3.1-.4.2-.3,0-.6.2-.8.4,0,0-.1.1-.2.2-.2.2-.2.2-.4.2-.4,0-.7,0-1,.3-.2.2-.5.4-.8.5-.1,0-.3,0-.4,0-.2,0-.2,0-.4,0-.3,0-.6.3-.9.5,0,0-.2.2-.3.2h0c-.3.3-.7.4-1.1.4h0c-.3,0-.6-.2-.7-.5,0-.3,0-.6.2-.9.1-.1.2-.2.4-.3.2-.2.4-.3.5-.5.2-.2.1-.6,0-.8-.2-.2-.6-.3-.7-.3h0s0,0,0,0c0,0-.2,0-.3,0-.2,0-.4-.2-.6-.4,0,.1-.1.3,0,.4,0,.3.3.6.6.8,0,0,0,0,0,0,0,0,.2,0,.3,0h.1c0,0,.1,0,.2,0,0,0,.1,0,.1.1s0,0,0,.1c0,0,0,0-.2.1-.2.2-.5.4-.7.7-.3.3-.3.8-.2,1.2.2.5.6.7,1,.8,0,0,.1,0,.2,0,.2,0,.4,0,.7-.1h0s0,0,0,0c0,0,0,.2,0,.3,0,.2,0,.3,0,.4,0,.2,0,.3.2.5,0,0,0,0,0,.1,0,0,0,.1,0,.2-.2.2-.5.3-.5.3,0,0-.2,0-.3,0h0s0,0,0,0c0,0,0,.2-.2.3,0,0,0,.2-.1.3,0,.2-.3.3-.4.4,0,0,0,0-.1,0h0c0,.1-.1.2-.2.3,0,0-.2,0-.2,0h0c-.1.2-.2.3-.2.5,0,0,0,0,0,0h0s0,0,0,0c0,0,.1,0,.2,0,0,0,.2,0,.3,0s.2,0,.2,0c.1,0,.2-.2.2-.3,0,0,0-.2.1-.2,0,0,0,0,.1,0s0,0,.2,0c0,0,0,0,.1,0,.2,0,.4-.1.6-.2,0,0,0,0,.1-.1,0,0,.1-.1.2-.2,0,0,.2,0,.3,0s.3,0,.5,0c0,0,.2,0,.2,0,.1,0,.3,0,.4,0,.1,0,.2-.1.4-.2,0,0,.1,0,.2,0,.2,0,.3-.4.4-.5,0-.1.2-.3.2-.3h0l-.2-.2h0s-.1.2-.2.3c-.4.5-1,.6-1.5.6h0c-.6,0-1.1.2-1.4.6,0,0,0,0,0,0h0c0,0,0,0,0-.1.4-.5,1-.6,1.5-.6.4,0,.7,0,.9-.2.3-.2.5-.5.6-.8,0-.2,0-.4.1-.6,0-.2,0-.3,0-.5,0,0,0,0,0,0h0s0,0,0,0c0,.3-.1.7,0,1,0,.1.2.2.4.2s.3,0,.4,0c.1,0,.2,0,.3,0h.1c.2,0,.3,0,.5,0,.1,0,.3,0,.4,0h.2c.1,0,.2,0,.3,0,0,0,0,0,0-.2h0s0,0,0,0c0,0,0-.2,0-.3,0,0,0,0,0,0s0,0,0,0c0,0,0,0,0,0,0,.1,0,.2.1.3.2.2.4.4.7.5.2.1.4.3.4.6,0,.1-.1.2-.2.3-.2,0-.4.2-.5.2h0c-.2,0-.3-.2-.4-.4,0,0,0-.2-.2-.2,0,0-.2-.1-.4-.1-.2,0-.3,0-.5,0,0,0,0,0,0,0,0,0,0,0,0,.1,0,.2.2.3.3.4h0c0,0,0,.1,0,.1h.2c0,0,.1,0,.2,0,0,0,0,0,0,.1,0,0,.1.2.2.3,0,0,.2.1.4.1s.1,0,.2,0c.4-.1.8-.2,1.2-.5h.2,0ZM85.1,54s0,0,0,0c0,0,0,0,0,0,0-.3-.1-.5-.2-.7,0,0,0,0,0-.1,0,0-.1-.2,0-.2,0,0,0,0,0,0s0,0,0,0c0,0,.1.1.2.2.2.3,0,.8,0,.8h0ZM87.2,57.4s0,0,0,.1c0,0-.2,0-.3,0s-.1,0-.1,0c0,0,0,0,0,0,0,0,.1-.2.3-.3,0,0,0,0,.1,0,0,0,0,.2,0,.2ZM87.8,56.1c0,0,0,.1,0,.1s0,0,0,0,0,0,0,0c0,0,0-.2,0-.3,0,0-.2-.4-.4-.3,0,0-.1,0-.2.1,0,0,0,0,0,.1,0,0,0,0,0,0,0,0,0,0,0-.2,0,0,0-.1,0-.2,0,0,0-.2,0-.2,0,0,.2,0,.2,0,0,0,0,0,.2,0,0,.1,0,.1,0,.2s0,0,.1.2c0,0,.2.2.2.3,0,0,0,.2,0,.3h0Z"/>
            </g>
          </g>
        </g>
      </g>
    </g>
  </g>
</svg>